<svg height="512pt" viewBox="0 -4 512 511" width="512pt" xmlns="http://www.w3.org/2000/svg"><path d="m440.054688 299.167969h-35.308594c-6.734375 0-12.210938-5.480469-12.210938-12.210938v-120.644531c0-6.734375 5.476563-12.210938 12.210938-12.210938h35.308594c6.734374 0 12.210937 5.476563 12.210937 12.210938v120.652344c0 6.722656-5.476563 12.203125-12.210937 12.203125zm-30.453126-17.066407h25.597657v-110.933593h-25.597657zm0 0"/><path d="m363.253906 299.167969h-35.308594c-6.734374 0-12.210937-5.480469-12.210937-12.210938v-52.386719c0-6.726562 5.476563-12.203124 12.210937-12.203124h35.308594c6.734375 0 12.210938 5.476562 12.210938 12.210937v52.386719c0 6.722656-5.476563 12.203125-12.210938 12.203125zm-30.453125-17.066407h25.597657v-42.667968h-25.597657zm0 0"/><path d="m209.65625 299.167969h-35.3125c-6.730469 0-12.210938-5.480469-12.210938-12.210938v-26.789062c0-6.722657 5.480469-12.203125 12.210938-12.203125h35.3125c6.730469 0 12.210938 5.480468 12.210938 12.214844v26.785156c0 6.722656-5.480469 12.203125-12.210938 12.203125zm-30.457031-17.066407h25.601562v-17.066406h-25.601562zm0 0"/><path d="m286.457031 299.167969h-35.3125c-6.734375 0-12.210937-5.480469-12.210937-12.210938v-86.511719c0-6.734374 5.476562-12.210937 12.210937-12.210937h35.3125c6.730469 0 12.210938 5.476563 12.210938 12.210937v86.519532c0 6.722656-5.480469 12.203125-12.210938 12.203125zm-30.457031-17.066407h25.601562v-76.800781h-25.601562zm0 0"/><path d="m170.667969 222.367188c-2.1875 0-4.371094-.835938-6.035157-2.5-3.335937-3.335938-3.335937-8.730469 0-12.066407l93.867188-93.867187c2.875-2.882813 7.382812-3.328125 10.769531-1.066406l70.367188 46.90625 71.898437-87.875c2.988282-3.660157 8.363282-4.179688 12.007813-1.210938 3.644531 2.996094 4.183593 8.363281 1.203125 12.003906l-76.800782 93.867188c-2.78125 3.40625-7.679687 4.140625-11.339843 1.699218l-70.980469-47.316406-88.917969 88.917969c-1.671875 1.671875-3.855469 2.507813-6.039062 2.507813zm0 0"/><path d="m418.132812 85.832031h-42.667968c-4.707032 0-8.53125-3.8125-8.53125-8.53125s3.824218-8.535156 8.53125-8.535156h42.667968c4.710938 0 8.535157 3.816406 8.535157 8.535156s-3.824219 8.53125-8.535157 8.53125zm0 0"/><path d="m418.132812 128.5c-4.710937 0-8.53125-3.8125-8.53125-8.535156v-42.664063c0-4.71875 3.820313-8.535156 8.53125-8.535156 4.710938 0 8.535157 3.816406 8.535157 8.535156v42.664063c0 4.722656-3.824219 8.535156-8.535157 8.535156zm0 0"/><path d="m128 265.035156h-68.265625c-4.710937 0-8.535156-3.816406-8.535156-8.535156s3.824219-8.535156 8.535156-8.535156h68.265625c4.710938 0 8.535156 3.816406 8.535156 8.535156s-3.824218 8.535156-8.535156 8.535156zm0 0"/><path d="m93.867188 299.167969h-34.132813c-4.710937 0-8.535156-3.816407-8.535156-8.535157s3.824219-8.53125 8.535156-8.53125h34.132813c4.710937 0 8.53125 3.8125 8.53125 8.53125s-3.820313 8.535157-8.53125 8.535157zm0 0"/><path d="m128 179.699219h-68.265625c-4.710937 0-8.535156-3.8125-8.535156-8.53125s3.824219-8.535157 8.535156-8.535157h68.265625c4.710938 0 8.535156 3.816407 8.535156 8.535157s-3.824218 8.53125-8.535156 8.53125zm0 0"/><path d="m93.867188 213.832031h-34.132813c-4.710937 0-8.535156-3.8125-8.535156-8.53125s3.824219-8.535156 8.535156-8.535156h34.132813c4.710937 0 8.53125 3.816406 8.53125 8.535156s-3.820313 8.53125-8.53125 8.53125zm0 0"/><path d="m128 94.367188h-68.265625c-4.710937 0-8.535156-3.816407-8.535156-8.535157s3.824219-8.53125 8.535156-8.53125h68.265625c4.710938 0 8.535156 3.8125 8.535156 8.53125s-3.824218 8.535157-8.535156 8.535157zm0 0"/><path d="m93.867188 128.5h-34.132813c-4.710937 0-8.535156-3.8125-8.535156-8.535156 0-4.71875 3.824219-8.53125 8.535156-8.53125h34.132813c4.710937 0 8.53125 3.8125 8.53125 8.53125 0 4.722656-3.820313 8.535156-8.53125 8.535156zm0 0"/><path d="m324.265625 51.699219h-136.53125c-4.710937 0-8.535156-3.8125-8.535156-8.53125v-34.132813c0-4.722656 3.824219-8.535156 8.535156-8.535156h136.53125c4.710937 0 8.535156 3.8125 8.535156 8.535156v34.132813c0 4.71875-3.824219 8.53125-8.535156 8.53125zm-128-17.066407h119.46875v-17.066406h-119.46875zm0 0"/><path d="m341.332031 375.964844h-170.664062c-4.710938 0-8.535157-3.8125-8.535157-8.53125v-34.132813c0-4.71875 3.824219-8.535156 8.535157-8.535156h170.664062c4.710938 0 8.535157 3.816406 8.535157 8.535156v34.132813c0 4.71875-3.824219 8.53125-8.535157 8.53125zm-162.132812-17.066406h153.601562v-17.066407h-153.601562zm0 0"/><path d="m503.464844 358.898438h-162.132813c-4.710937 0-8.53125-3.8125-8.53125-8.53125v-8.535157h-153.601562v8.535157c0 4.71875-3.820313 8.53125-8.53125 8.53125h-162.132813c-4.710937 0-8.535156-3.8125-8.535156-8.53125v-324.265626c0-4.71875 3.824219-8.535156 8.535156-8.535156h179.199219c4.710937 0 8.53125 3.816406 8.53125 8.535156v8.53125h119.46875v-8.53125c0-4.71875 3.820313-8.535156 8.53125-8.535156h179.199219c4.710937 0 8.535156 3.816406 8.535156 8.535156v324.265626c0 4.71875-3.824219 8.53125-8.535156 8.53125zm-153.597656-17.066407h145.066406v-307.199219h-162.132813v8.535157c0 4.71875-3.824219 8.53125-8.535156 8.53125h-136.53125c-4.710937 0-8.535156-3.8125-8.535156-8.53125v-8.535157h-162.132813v307.199219h145.066406v-8.53125c0-4.71875 3.824219-8.535156 8.535157-8.535156h170.664062c4.710938 0 8.535157 3.816406 8.535157 8.535156zm0 0"/><path d="m256 435.699219c-4.710938 0-8.535156-3.8125-8.535156-8.53125v-59.734375c0-4.71875 3.824218-8.535156 8.535156-8.535156s8.535156 3.816406 8.535156 8.535156v59.734375c0 4.71875-3.824218 8.53125-8.535156 8.53125zm0 0"/><path d="m256 503.964844c-23.527344 0-42.667969-19.136719-42.667969-42.664063 0-23.527343 19.140625-42.667969 42.667969-42.667969s42.667969 19.140626 42.667969 42.667969c0 23.527344-19.140625 42.664063-42.667969 42.664063zm0-68.265625c-14.113281 0-25.601562 11.488281-25.601562 25.601562s11.488281 25.597657 25.601562 25.597657 25.601562-11.484376 25.601562-25.597657-11.488281-25.601562-25.601562-25.601562zm0 0"/></svg>