<?xml version="1.0" encoding="iso-8859-1"?>
<!-- Generator: Adobe Illustrator 16.0.0, SVG Export Plug-In . SVG Version: 6.00 Build 0)  -->
<!DOCTYPE svg PUBLIC "-//W3C//DTD SVG 1.1//EN" "http://www.w3.org/Graphics/SVG/1.1/DTD/svg11.dtd">
<svg version="1.1" id="Capa_1" xmlns="http://www.w3.org/2000/svg" xmlns:xlink="http://www.w3.org/1999/xlink" x="0px" y="0px"
	 width="27.02px" height="27.019px" viewBox="0 0 27.02 27.019" style="enable-background:new 0 0 27.02 27.019;"
	 xml:space="preserve">
<g>
	<path d="M26.968,8.031c-0.791-7.657-9.34-7.539-13.459-3.843C9.39,0.492,0.845,0.374,0.052,8.031
		c-0.918,8.843,10.631,15.895,13.021,17.254l0.222-4.199c-0.003-0.72-0.315-0.72-0.66-0.654c-0.344,0.062-4.439,0.767-4.439,0.767
		S8.677,20.04,8.675,19.6c-0.001-0.562-1.21-1.34-2.527-2.494c-1.319-1.152-2.229-1.743-2.229-1.869
		c-0.001-0.125,0.938-0.097,0.936-0.786C4.854,13.763,3.967,11.2,3.967,11.2s1.85,0.705,2.35,0.703
		c0.5-0.001,1.278-0.998,1.277-1.718c0,0,2.42,3.026,2.919,2.806c0.501-0.22-0.929-6.159-0.929-6.159s1.443,1.3,1.943,1.143
		c0.5-0.159,1.896-3.723,1.896-3.723s0.021-0.045,0.052-0.045c0.028,0,0.052,0.044,0.052,0.044s1.421,3.554,1.921,3.708
		c0.502,0.155,1.938-1.155,1.938-1.155s-1.387,5.951-0.886,6.167c0.502,0.218,2.899-2.825,2.899-2.825
		c0.004,0.719,0.789,1.709,1.289,1.708c0.501-0.002,2.348-0.721,2.348-0.721s-0.869,2.567-0.867,3.258
		c0.002,0.688,0.943,0.653,0.943,0.777c0,0.126-0.907,0.724-2.218,1.886c-1.311,1.163-2.512,1.95-2.511,2.514
		c0.002,0.438,0.491,1.594,0.491,1.594s-4.102-0.674-4.445-0.734c-0.346-0.062-0.658-0.062-0.654,0.659l0.249,4.155
		C16.576,23.777,27.874,16.78,26.968,8.031z"/>
</g>
<g>
</g>
<g>
</g>
<g>
</g>
<g>
</g>
<g>
</g>
<g>
</g>
<g>
</g>
<g>
</g>
<g>
</g>
<g>
</g>
<g>
</g>
<g>
</g>
<g>
</g>
<g>
</g>
<g>
</g>
</svg>
