<?xml version="1.0" encoding="iso-8859-1"?>
<!-- Generator: Adobe Illustrator 21.0.0, SVG Export Plug-In . SVG Version: 6.00 Build 0)  -->
<svg xmlns="http://www.w3.org/2000/svg" xmlns:xlink="http://www.w3.org/1999/xlink" version="1.1" id="Capa_1" x="0px" y="0px" viewBox="0 0 509.85 509.85" style="enable-background:new 0 0 509.85 509.85;" xml:space="preserve" width="512" height="512">
<path d="M508.244,496.23c-0.901-1.125-22.56-27.861-64.702-54.805c-38.785-24.798-102.991-54.357-188.618-54.357  c-6.42,0-12.795,0.171-19.128,0.493c0.677-15.396,1.79-29.383,3.389-42.514c0.501-4.112-2.426-7.852-6.538-8.352  c-4.121-0.496-7.852,2.426-8.352,6.538c-1.707,14.011-2.878,28.924-3.563,45.396c-14.285,1.319-28.331,3.483-42.123,6.466  c5.485-62.7,23.811-110.633,44.166-157.555c0.914,0.064,1.826,0.105,2.734,0.105c9.357-0.001,18.281-3.367,25.266-9.198  c1.218,3.041,2.805,5.922,4.727,8.568c-11.707,21.83-20.214,46.021-25.951,73.774c-0.805,3.895,1.687,7.853,5.552,8.801  c4.076,1,8.288-1.655,9.138-5.764c5.139-24.859,12.587-46.634,22.682-66.287c3.266,1.981,6.874,3.518,10.766,4.501  c3.206,0.809,6.424,1.196,9.601,1.195c13.195-0.001,25.606-6.697,32.868-17.661l5.483,16.938  c3.633,11.223,12.611,19.721,24.016,22.732l27.886,7.362l7.748,22.772c3.993,11.733,14.036,20.462,26.211,22.778l20.853,3.969  c5.517,1.046,11.216-0.936,14.879-5.195c3.66-4.256,4.793-10.169,2.939-15.472c-24.558-70.259-69.945-107.641-103.695-126.629  c-7.888-4.438-15.494-8.098-22.591-11.116l8.26-7.91l21.102,6.387c11.289,3.418,23.391,0.891,32.37-6.76l21.953-18.705l23.124,6.624  c11.913,3.412,24.813,0.142,33.66-8.537l15.153-14.864c4.066-3.989,5.644-9.665,4.22-15.185c-1.422-5.515-5.546-9.716-11.03-11.238  c-33.298-9.242-66.264-11.616-97.979-7.065c-4.1,0.589-6.947,4.39-6.358,8.49c0.588,4.1,4.389,6.94,8.49,6.357  c29.652-4.258,60.549-2.012,91.835,6.67c0.55,0.154,0.724,0.863,0.318,1.261l-15.153,14.865c-5.002,4.905-12.292,6.752-19.025,4.825  l-26.991-7.732c-2.414-0.693-5.017-0.129-6.93,1.501l-25.016,21.314c-5.076,4.324-11.915,5.753-18.295,3.82l-25.297-7.656  c-2.591-0.782-5.405-0.111-7.36,1.762l-15.073,14.435c-0.506,0.485-1.051,0.936-1.618,1.368  c-13.931-4.724-24.302-6.666-28.405-7.314c-1.227-0.817-3.153-2.053-5.716-3.569c13.905-11.516,39.401-29.203,74.502-39.438  c3.977-1.16,6.26-5.323,5.101-9.3c-1.16-3.977-5.328-6.258-9.3-5.101c-20.653,6.022-38.217,14.471-52.342,22.917  C274.03,83.95,236.674,31.339,159.714,2.454c-5.326-2-11.129-1.033-15.525,2.585c-4.402,3.622-6.472,9.14-5.535,14.759l3.491,20.938  c2.039,12.226,10.535,22.466,22.174,26.725l22.588,8.267l6.724,28.048c2.75,11.47,11.041,20.639,22.177,24.528l20.815,7.268  l0.794,4.432c-6.999-2.456-14.722-4.787-23.121-6.771c-37.688-8.897-96.398-12.151-162.061,22.887  c-5.021,2.68-8.132,7.678-8.32,13.371c-0.188,5.697,2.587,10.895,7.424,13.901l18.026,11.209c10.525,6.545,23.826,6.93,34.711,1.003  l21.126-11.499l25.5,13.478c5.072,2.681,10.6,4.018,16.124,4.018c5.834,0,11.663-1.492,16.941-4.468l2.453-1.383  c-0.523,7.898,1.342,15.76,5.487,22.702c3.96,6.634,9.648,11.835,16.429,15.153c-21.058,48.712-39.842,98.745-44.882,165.185  c-27.852,7.38-54.594,18.221-80.034,32.496c-3.564,2-4.87,6.647-2.87,10.211c2,3.565,6.646,4.87,10.211,2.871  c25.642-14.39,52.676-25.132,80.889-32.195c0.485-0.072,0.955-0.189,1.406-0.35c17.914-4.401,36.3-7.323,55.109-8.742  c0.006,0,0.011,0,0.017,0c0.321,0,0.635-0.027,0.945-0.067c8.581-0.624,17.246-0.944,25.997-0.944  c81.72,0,142.997,28.093,180.012,51.66c23.206,14.774,40.062,29.674,50.215,39.691H24.691c8.631-8.52,22.104-20.565,40.193-33.044  c3.364-2.321,4.235-7.069,1.915-10.433c-2.32-3.363-7.068-4.235-10.432-1.915C20.691,472.64,2.368,495.278,1.606,496.23  c-3.863,4.819-0.302,12.189,5.853,12.189h494.933C508.546,508.42,512.107,501.05,508.244,496.23z M281.36,237.497  c-13.031-3.289-20.957-16.566-17.67-29.597c1.551-6.146,5.372-11.306,10.543-14.591l1.407,7.501  c2.602,13.871,13.221,24.646,27.052,27.452l3.709,0.752C300.601,236.297,290.871,239.894,281.36,237.497z M339.123,197.904  c20.037,11.272,37.869,25.599,52.999,42.58c18.947,21.265,33.713,46.809,43.891,75.925c0.042,0.12,0.141,0.402-0.142,0.73  c-0.287,0.332-0.586,0.278-0.712,0.251l-20.853-3.969c-6.881-1.309-12.558-6.242-14.815-12.874l-9.044-26.58  c-0.809-2.379-2.756-4.194-5.186-4.836l-31.775-8.39c-6.446-1.701-11.521-6.505-13.575-12.848l-8.14-25.145  c-0.833-2.576-2.991-4.503-5.645-5.041l-6.916-1.402c-0.005-0.001-0.01-0.002-0.015-0.003l-13.522-2.742  c-7.818-1.585-13.82-7.676-15.29-15.517l-3.936-20.986C297.799,179.74,317.351,185.654,339.123,197.904z M250.616,128.611  c-0.477-2.665-2.354-4.866-4.91-5.759l-24.953-8.712c-6.295-2.198-10.981-7.381-12.535-13.863l-7.662-31.959  c-0.586-2.443-2.356-4.432-4.716-5.295l-26.367-9.649c-6.578-2.407-11.38-8.195-12.533-15.105l-3.491-20.938  c-0.021-0.128-0.071-0.429,0.269-0.709c0.33-0.271,0.596-0.172,0.724-0.125c73.492,27.585,108.364,78.125,124.841,117.68  c-8.236,5.702-14.736,11.011-19.383,15.113c-1.912-0.919-3.94-1.857-6.084-2.806L250.616,128.611z M176.401,184.064  c-5.807,3.275-12.795,3.37-18.688,0.255l-29.056-15.357c-2.2-1.163-4.904-1.147-7.09,0.044l-24.66,13.423  c-6.153,3.349-13.67,3.132-19.62-0.567l-18.026-11.209c-0.481-0.299-0.469-1.032,0.037-1.3  c49.187-26.248,99.963-33.538,150.924-21.67c24.516,5.71,43.187,14.734,53.482,20.512l-13.913,10.382  c-0.012,0.009-0.025,0.018-0.037,0.028l-3.15,2.351c-6.393,4.77-14.934,5.183-21.759,1.054l-17.855-10.807  c-2.317-1.402-5.209-1.448-7.567-0.117L176.401,184.064z M201.882,192.303c0.478-1.892,1.196-3.688,2.096-5.393l13.101,7.929  c10.118,6.125,22.361,6.581,32.72,1.608c0.194,2.597-0.008,5.226-0.653,7.783c-3.264,12.935-16.373,20.829-29.306,17.734  c-0.049-0.011-0.099-0.023-0.148-0.033c-0.047-0.011-0.094-0.02-0.141-0.032c-6.313-1.593-11.627-5.548-14.964-11.138  C201.25,205.172,200.289,198.616,201.882,192.303z"/>















</svg>
