<?xml version="1.0"?>
<svg xmlns="http://www.w3.org/2000/svg" id="Layer_1" data-name="Layer 1" viewBox="0 0 512 512" width="512" height="512"><title>king customers users</title><path d="M254.133,246.6a45.6,45.6,0,0,0-45.543,45.543v24.645a45.6,45.6,0,0,0,45.543,45.543h3.9a45.6,45.6,0,0,0,45.543-45.543V292.142A45.594,45.594,0,0,0,258.032,246.6Zm37.442,45.543v24.645a33.581,33.581,0,0,1-33.543,33.543h-3.9a33.581,33.581,0,0,1-33.543-33.543V292.142A33.581,33.581,0,0,1,254.133,258.6h3.9A33.581,33.581,0,0,1,291.575,292.142Z"/><path d="M379.155,273.114h-3.413a40.659,40.659,0,0,0-40.612,40.613V335.3a40.659,40.659,0,0,0,40.612,40.613h3.413A40.659,40.659,0,0,0,419.768,335.3V313.727A40.659,40.659,0,0,0,379.155,273.114ZM407.768,335.3a28.645,28.645,0,0,1-28.613,28.613h-3.413A28.645,28.645,0,0,1,347.13,335.3V313.727a28.644,28.644,0,0,1,28.612-28.613h3.413a28.644,28.644,0,0,1,28.613,28.613Z"/><path d="M406.948,377.615c-3.18-.243-4.791,1.741-6.218,3.48a29.184,29.184,0,0,1-46.048-1.124,6.012,6.012,0,0,0-4.976-2.433,46.356,46.356,0,0,0-23.224,6.838,52.524,52.524,0,0,0-36.818-18.4c-3.136-.22-4.764,1.769-6.322,3.669a34.2,34.2,0,0,1-53.957-1.318,6.043,6.043,0,0,0-4.976-2.433,52.4,52.4,0,0,0-36.358,15.859c-.849.869-1.653,1.771-2.434,2.687a46.549,46.549,0,0,0-21.566-6.828c-3.187-.243-4.791,1.741-6.218,3.48a29.185,29.185,0,0,1-46.049-1.124,6.017,6.017,0,0,0-4.975-2.433A46.876,46.876,0,0,0,61.126,424.39v40.864a6,6,0,0,0,6,6H173.052V486a6,6,0,0,0,6,6H333.113a6,6,0,0,0,6-6V471.254H444.874a6,6,0,0,0,6-6V424.39A46.9,46.9,0,0,0,406.948,377.615ZM73.126,459.254V424.39a35.111,35.111,0,0,1,31.112-34.664,41.192,41.192,0,0,0,61.873.154,34.641,34.641,0,0,1,12.789,4.537,52.456,52.456,0,0,0-5.848,24.151v40.686ZM327.113,480H185.052V418.568a40.969,40.969,0,0,1,36.756-40.5,46.2,46.2,0,0,0,69.991.161,40.739,40.739,0,0,1,35.314,40.336Zm111.761-20.746H339.113V418.568a52.415,52.415,0,0,0-5.913-24.23,34.353,34.353,0,0,1,13.932-4.616,41.192,41.192,0,0,0,61.877.158,34.908,34.908,0,0,1,29.865,34.51Z"/><path d="M132.845,273.114a40.659,40.659,0,0,0-40.613,40.613V335.3a40.659,40.659,0,0,0,40.613,40.613h3.413A40.659,40.659,0,0,0,176.87,335.3V313.727a40.659,40.659,0,0,0-40.612-40.613Zm32.025,40.613V335.3a28.645,28.645,0,0,1-28.612,28.613h-3.413A28.645,28.645,0,0,1,104.232,335.3V313.727a28.644,28.644,0,0,1,28.613-28.613h3.413A28.644,28.644,0,0,1,164.87,313.727Z"/><path d="M101.52,52.9a35.147,35.147,0,1,0,0,70.294c.744,0,1.479-.031,2.211-.076L120.5,187.954v37.671a6,6,0,0,0,6,6H385.5a6,6,0,0,0,6-6V187.954l16.772-64.841c.732.045,1.467.076,2.211.076A35.2,35.2,0,1,0,382.517,109.3l-54.164,41.5L277.292,83.086a35.15,35.15,0,1,0-43.207-.49L179.32,150.78l-50.278-40.917A35.118,35.118,0,0,0,101.52,52.9ZM78.372,88.042a23.148,23.148,0,1,1,39.434,16.43,5.848,5.848,0,0,0-3.131,2.6A23.039,23.039,0,0,1,107.5,110.4a5.742,5.742,0,0,0-1.419.334A23.15,23.15,0,0,1,78.372,88.042ZM132.5,219.625V193.192H379.5v26.433ZM410.48,64.9a23.147,23.147,0,1,1-4.564,45.84,6.075,6.075,0,0,0-.6-.187,5.768,5.768,0,0,0-.824-.147A23.146,23.146,0,0,1,410.48,64.9ZM256,32a23.142,23.142,0,0,1,10.721,43.653,5.983,5.983,0,0,0-1.573.754,23.114,23.114,0,0,1-18.042.109c-.085-.077-.167-.157-.257-.23a5.979,5.979,0,0,0-2.6-1.207A23.14,23.14,0,0,1,256,32ZM180.217,165.245a6.1,6.1,0,0,0,.632-.033A6,6,0,0,0,184.9,163l59.882-74.555a35.1,35.1,0,0,0,21.715.248l55.919,74.162a6,6,0,0,0,8.441,1.151l60.6-46.437a35.041,35.041,0,0,0,5.14,2.753l-15.743,60.868h-249.7l-15.743-60.868a35.129,35.129,0,0,0,4.558-2.379L176.43,163.9A6,6,0,0,0,180.217,165.245Z"/></svg>
