<?xml version="1.0" encoding="iso-8859-1"?>
<!-- Generator: Adobe Illustrator 19.0.0, SVG Export Plug-In . SVG Version: 6.00 Build 0)  -->
<svg xmlns="http://www.w3.org/2000/svg" xmlns:xlink="http://www.w3.org/1999/xlink" version="1.1" id="Layer_1" x="0px" y="0px" viewBox="0 0 512 512" style="enable-background:new 0 0 512 512;" xml:space="preserve" width="512" height="512">
<g>
	<path d="M503.358,148.846l-11.972-54.003c-1.097-4.947-4.617-9.006-9.36-10.792L261.284,0.962c-3.406-1.282-7.162-1.282-10.568,0   L29.975,84.051c-4.743,1.786-8.264,5.845-9.36,10.792L8.643,148.846c-1.032,4.655,0.211,9.523,3.347,13.114l59.842,68.513   c-0.032,0.403-0.062,0.807-0.062,1.218v17.722H52.177c-18.585,0-33.705,15.12-33.705,33.705v36.473   c0,25.488,20.735,46.224,46.224,46.224h7.074v12.934C71.77,452.224,131.546,512,205.021,512h102.158   c73.476,0,133.252-59.776,133.252-133.251v-12.934h7.073c25.488,0,46.224-20.736,46.224-46.224v-36.473   c0-18.585-15.119-33.705-33.704-33.705h-19.593v-17.722c0-0.484-0.028-0.962-0.073-1.435l59.653-68.297   C503.147,158.369,504.39,153.501,503.358,148.846z M270.118,356.744h-28.236l3.654-37.773c3.505,0.097,7.026,0.152,10.564,0.152   c3.471,0,6.926-0.053,10.365-0.146L270.118,356.744z M256.1,289.124c-76.069,0-132.843-23.75-149.387-49.35h298.774   C388.943,265.373,332.169,289.124,256.1,289.124z M48.146,109.266L256,31.028l207.854,78.239l8.573,38.669l-54.012,61.838H93.584   l-54.012-61.838L48.146,109.266z M64.695,335.815c-8.945,0-16.224-7.278-16.224-16.224v-36.473c0-2.042,1.662-3.705,3.705-3.705   H71.77v56.401H64.695z M307.179,482H205.021c-56.933,0-103.251-46.318-103.251-103.251V277.487   c7.941,6.175,17.374,11.866,28.226,16.955c24.058,11.284,53.572,18.968,85.597,22.488L210.43,370.3   c-0.407,4.21,0.982,8.396,3.825,11.527s6.876,4.917,11.105,4.917h61.279c4.229,0,8.263-1.786,11.105-4.917   s4.232-7.317,3.825-11.527l-5.16-53.347c32.101-3.51,61.687-11.203,85.794-22.51c10.852-5.09,20.285-10.78,28.227-16.956v101.262   C410.431,435.682,364.112,482,307.179,482z M460.024,279.414c2.042,0,3.704,1.662,3.704,3.705v36.473   c0,8.946-7.278,16.224-16.224,16.224h-7.073v-56.401H460.024z"/>
	<path d="M211.882,173.327l38.449,15.694c1.817,0.742,3.743,1.112,5.669,1.112s3.852-0.371,5.669-1.112l38.449-15.694   c5.643-2.303,9.331-7.792,9.331-13.888V84.802c0-7.146-5.04-13.299-12.046-14.706c-5.06-1.017-30.834-6.087-41.403-6.087   s-36.344,5.071-41.403,6.087c-7.006,1.407-12.046,7.561-12.046,14.706v74.638C202.551,165.534,206.239,171.024,211.882,173.327z    M232.551,97.238c9.575-1.699,19.591-3.23,23.449-3.23s13.874,1.531,23.449,3.23v52.122L256,158.931l-23.449-9.571V97.238z"/>
	<path d="M305.171,405.816h-98.342c-8.284,0-15,6.716-15,15s6.716,15,15,15h98.342c8.284,0,15-6.716,15-15   S313.455,405.816,305.171,405.816z"/>
</g>















</svg>
