<svg height="512pt" viewBox="-34 0 512 512.00001" width="512pt" xmlns="http://www.w3.org/2000/svg"><path d="m437.941406 116.851562c-.964844-7.273437-6.988281-12.734374-14.320312-13.003906-72.875-2.625-146.433594-52.992187-190.976563-99.257812-5.945312-6.152344-15.691406-6.074219-21.515625-.039063-58.199218 59.992188-129.585937 97.113281-190.976562 99.304688-7.339844.261719-13.363282 5.722656-14.332032 13.003906-34.746093 261.652344 92.1875 394.636719 217.742188 395.140625h.703125c120.828125 0 249.570313-125.605469 213.675781-395.148438zm-30.945312 229.433594c-92.09375 261.851563-440.285156 180.289063-386.230469-227.363281 74.476563-2.683594 149.179687-50.285156 201.097656-103.769531 26.933594 27.949218 58.359375 52.226562 90.894531 70.21875 37.957032 20.980468 75.046876 32.273437 110.25 33.550781 11.644532 87.578125 6.253907 164.074219-16.011718 227.363281zm0 0"/><path d="m395.8125 136.351562c-55.605469-9.082031-114.53125-39.453124-165.925781-85.527343-4.617188-4.132813-11.574219-4.164063-16.191407-.050781-37.070312 33.027343-95.90625 74.707031-165.652343 85.679687-5.523438.863281-9.734375 5.339844-10.25 10.878906-1.941407 20.871094-2.734375 40.753907-2.503907 59.652344.050782 4.132813 3.410157 7.453125 7.542969 7.453125 4.175781 0 7.535157-3.382812 7.535157-7.535156v-.089844c-.214844-17.699219.5-36.308594 2.242187-55.816406 71.144531-11.859375 130.863281-53.476563 169.152344-87.207032 52.378906 46.402344 112.359375 77.238282 169.425781 87.074219 35.160156 384.179688-309.59375 401.847657-339.816406 88.714844-.371094-3.859375-3.621094-6.816406-7.492188-6.816406h-.011718c-4.445313 0-7.945313 3.832031-7.511719 8.246093 32.101562 332.742188 408.386719 313.664063 369.632812-93.804687-.519531-5.5-4.703125-9.957031-10.175781-10.851563zm0 0"/><path d="m273.113281 125.210938c5.324219-20.054688-21.742187-32.125-33.066406-14.625 0 0-31.21875 48.796874-31.460937 49.167968h-38.730469c-7.484375 0-14.441407 4.023438-18.183594 10.5l-52.15625 90.335938c-3.742187 6.476562-3.742187 14.519531 0 21l52.15625 90.332031c2.484375 4.304687 6.386719 7.523437 10.921875 9.203125l-15.277344 32.011719c-9.753906 18.625 14.65625 36.328125 29.347656 21.230469.210938-.210938.402344-.441407.582032-.671876l39.234375-51.273437h57.6875c7.484375 0 14.445312-4.023437 18.183593-10.5l52.160157-90.332031c3.738281-6.480469 3.738281-14.523438 0-21l-22.550781-39.164063c-2.089844-3.601562-6.699219-4.835937-10.308594-2.753906-2.421875 1.394531-3.769532 3.929687-3.769532 6.546875 0 1.277344.320313 2.574219 1.003907 3.761719l22.558593 39.160156c1.046876 1.820313 1.046876 4.074219 0 5.90625l-52.15625 90.332031c-1.054687 1.820313-3.015624 2.957032-5.121093 2.957032h-46.140625l22.648437-29.199219c2.300781-3.003907 2.019531-7.246094-.65625-9.917969l-.007812-.007812c-3.226563-3.226563-8.554688-2.875-11.324219.75-28.308594 37.003906-60.148438 78.222656-73.085938 95.128906-1.527343 1.359375-2.988281.824218-3.960937.109375-1.773437-1.304688-1.640625-2.703125-.777344-4.421875 40.722657-85.308594-1.628906 3.398437 52.480469-109.957032 5.167969-10.820312-2.695312-23.421874-14.785156-23.421874h-50.726563c-.503906 0-.886719-.234376-1.128906-.675782s-.230469-.886718.039063-1.308594c124.199218-194.113281 41.757812-65.28125 105.984374-165.652343 1.238282-1.890625 2.855469-1.679688 4.003907-1.167969 1.105469.496094 2.3125 1.519531 1.839843 3.570312-30.320312 85.621094 1.386719-3.910156-37.914062 107.019532-3.773438 10.640625 4.132812 21.835937 15.425781 21.835937h60.113281c.191407 0 .792969 0 1.15625.722657.351563.714843-.019531 1.1875-.140624 1.347656-8.804688 11.511718-24.003907 31.367187-41.171876 53.816406-2.296874 3.003906-2.019531 7.246094.65625 9.921875 3.222657 3.226563 8.550782 2.871094 11.324219-.75l41.179688-53.816406c8.226562-10.769531.554687-26.328125-13.003907-26.328125h-60.113281c-.441406 0-.792969-.179688-1.046875-.542969-.261718-.363281-.308594-.753906-.160156-1.167969l20.679688-58.382812h18.613281c2.105469 0 4.066406 1.136718 5.121093 2.957031l14.101563 24.421875c2.082031 3.609375 6.695313 4.847656 10.308594 2.765625 2.414062-1.398437 3.769531-3.933594 3.769531-6.539063 0-1.277343-.332031-2.574218-1.015625-3.761718l-14.101563-24.429688c-3.738281-6.476562-10.699218-10.5-18.183593-10.5h-13.265625l12-33.871094c.058594-.183593.152344-.488281.210937-.671874zm-139.070312 151.066406c-6.980469 10.921875.902343 25.203125 13.789062 25.203125h50.726563c.472656 0 .84375.203125 1.097656.605469.25.390624.269531.8125.070312 1.234374l-30.535156 63.976563c-1.851562-.210937-3.507812-1.289063-4.453125-2.917969l-52.160156-90.34375c-1.042969-1.820312-1.042969-4.074218 0-5.902344l52.160156-90.335937c1.054688-1.820313 3.015625-2.957031 5.117188-2.957031h29.085937zm0 0"/></svg>