<?xml version="1.0"?>
<svg xmlns="http://www.w3.org/2000/svg" viewBox="0 0 64 64" width="512" height="512"><g id="outline"><path d="M44,44H42.82l-1.84-9.2A1,1,0,0,0,40,34H38.883l-.891-7.124A1,1,0,0,0,37,26H35.744l-2.786-9.287a1,1,0,0,0-1.916,0L28.256,26H27a1,1,0,0,0-.992.876L25.117,34H24a1,1,0,0,0-.98.8L21.18,44H21V27a1,1,0,0,0-1.371-.929l-10,4a1,1,0,0,0,0,1.858L19,35.677v9.232L16.018,60.815A1,1,0,0,0,17,62H47a1,1,0,0,0,.982-1.185l-3-16A1,1,0,0,0,44,44ZM32,20.48,33.656,26H30.344ZM27.883,28h8.234l.75,6H35V32H33v2H31V32H29v2H27.133ZM24.02,40H28V38H24.419l.4-2H39.181l.4,2H36v2h3.98l.8,4H23.22ZM12.692,31,19,28.477v5.046ZM18.2,60,20.83,46H43.17L45.8,60Z"/><path d="M61.371,42.071l-10-4A1,1,0,0,0,50,39V62h2V47.677l9.371-3.748a1,1,0,0,0,0-1.858ZM52,45.523V40.477L58.308,43Z"/><path d="M24,52a3,3,0,1,0,3,3A3,3,0,0,0,24,52Zm0,4a1,1,0,1,1,1-1A1,1,0,0,1,24,56Z"/><path d="M32,52a3,3,0,1,0,3,3A3,3,0,0,0,32,52Zm0,4a1,1,0,1,1,1-1A1,1,0,0,1,32,56Z"/><path d="M40,52a3,3,0,1,0,3,3A3,3,0,0,0,40,52Zm0,4a1,1,0,1,1,1-1A1,1,0,0,1,40,56Z"/><rect x="30" y="38" width="2" height="2"/><path d="M2.865,4.134c.422.057,1,.132,1.694.219l3.546,7.094a1,1,0,0,0,1.79,0L13.013,5.21c.821.067,1.68.133,2.572.2l3.52,7.041a1,1,0,0,0,1.79,0l3.292-6.585c1.192.042,2.423.072,3.673.095l3.245,6.49a1,1,0,0,0,1.79,0l3.245-6.49c1.25-.023,2.481-.053,3.673-.095l3.292,6.585a1,1,0,0,0,1.79,0l3.52-7.041c.892-.063,1.751-.129,2.572-.2l3.118,6.237a1,1,0,0,0,1.79,0l3.546-7.094c.7-.087,1.272-.162,1.694-.219a1,1,0,0,0-.27-1.983A225.349,225.349,0,0,1,32,4,225.349,225.349,0,0,1,3.135,2.151a1,1,0,0,0-.27,1.983ZM9,8.764,6.933,4.629c1.141.126,2.466.26,3.937.4Zm11,1-2.1-4.2c1.311.08,2.674.154,4.1.217Zm24,0L42.006,5.776c1.423-.063,2.786-.137,4.1-.217Zm11-1-1.87-3.74c1.471-.135,2.8-.269,3.937-.4ZM33.888,5.989,32,9.764,30.112,5.989C30.738,5.994,31.363,6,32,6S33.262,5.994,33.888,5.989Z"/><path d="M9,39c-5.537,0-7,5.233-7,8v4a1.752,1.752,0,0,0,.02.2l2,10A1,1,0,0,0,5,62h8a1,1,0,0,0,.98-.8l2-10A1.752,1.752,0,0,0,16,51V47C16,44.233,14.537,39,9,39Zm0,2c3.718,0,4.67,3.29,4.915,5H4.085C4.33,44.289,5.283,41,9,41Zm5,9H4V48H14ZM12.181,60H5.819l-1.6-8h9.56Z"/><rect x="9" y="55" width="2" height="2"/><path d="M58,14a4,4,0,1,0,4,4A4,4,0,0,0,58,14Zm0,6a2,2,0,1,1,2-2A2,2,0,0,1,58,20Z"/><path d="M5,14a1,1,0,0,0-.848,1.53C4.693,16.4,9.573,24,14,24a3.786,3.786,0,0,0,4-4,4.653,4.653,0,0,0-2.5-3.865C15.047,15.851,11.812,14,5,14Zm9,8c-2.084,0-5.08-3.194-7.078-5.945,5.185.3,7.5,1.764,7.529,1.781s.066.04.1.056A2.723,2.723,0,0,1,16,20,1.834,1.834,0,0,1,14,22Z"/><path d="M57.992,25.124a1,1,0,0,0-1.1-1.118c-1.562.174-9.457,1.147-11.6,3.287a3.828,3.828,0,0,0-1.283,2.82,3.671,3.671,0,0,0,1.317,2.627,5.958,5.958,0,0,0,3.957,1.3,7.2,7.2,0,0,0,.8-.042C50.891,33.954,56.963,33.356,57.992,25.124Zm-8.125,6.885a4.508,4.508,0,0,1-3.194-.749,1.794,1.794,0,0,1-.664-1.194,2.038,2.038,0,0,1,.7-1.359c1.119-1.119,5.711-2.077,9.079-2.546C54.512,31.862,50.2,32,49.994,32A1.084,1.084,0,0,0,49.867,32.009Z"/><path d="M50.1,17.005c-.945-.1-5.746-.544-7.433.052a4.272,4.272,0,0,0-2.611,5.275,4.338,4.338,0,0,0,4.024,2.822,3.736,3.736,0,0,0,1.251-.211c1.755-.618,4.664-5.062,5.514-6.41a1,1,0,0,0-.745-1.528Zm-5.433,6.052a2.282,2.282,0,0,1-2.725-1.389,2.28,2.28,0,0,1,1.389-2.725,8.182,8.182,0,0,1,2.156-.187c.852,0,1.828.041,2.75.1C46.83,20.914,45.27,22.845,44.668,23.057Z"/></g></svg>
