<svg height="512pt" viewBox="-24 0 512 512.00176" width="512pt" xmlns="http://www.w3.org/2000/svg"><path d="m95.117188 331.226562h-.074219c-19.523438-.097656-35.25-15.976562-35.152344-35.503906l.183594-36.304687-58.808594 160.679687c-4.285156 9.730469 2.84375 20.65625 13.472656 20.65625h85.617188l6.476562-111.492187c-3.636719 1.273437-7.546875 1.964843-11.609375 1.964843zm0 0"/><path d="m389.332031 53.128906c0 21.9375-17.78125 39.722656-39.71875 39.722656s-39.722656-17.785156-39.722656-39.722656 17.785156-39.722656 39.722656-39.722656 39.71875 17.785156 39.71875 39.722656zm0 0"/><path d="m231.695312 291.542969s-.011718.375 58.996094-70.925781c5.039063-6.105469 6.058594-14.589844 2.609375-21.71875l-42.679687-88.171876c-3.382813-6.992187-10.464844-11.429687-18.230469-11.429687-15.726563 0-108.742187 0-108.742187 0-26.046876 0-47.800782 21.167969-47.933594 47.691406l-.75 148.808594c-.054688 11.1875 8.96875 20.300781 20.152344 20.359375h.105468c11.121094 0 20.199219-8.980469 20.253906-20.152344l.75-148.8125c.019532-4.070312 3.347657-7.386718 7.421876-7.386718h.398437v153.058593l-11.242187 193.421875c-.804688 13.894532 10.234374 25.714844 24.289062 25.714844 12.78125 0 23.492188-9.976562 24.246094-22.898438 11.996094-206.816406 11.324218-194.230468 11.324218-195.691406h10.5c0 1.472656-.671874-11.109375 11.328126 195.691406.785156 13.507813 12.390624 23.644532 25.675781 22.855469 13.402343-.777343 23.636719-12.273437 22.855469-25.671875-.003907-.105468-11.328126-194.742187-11.328126-194.742187zm19.480469-86.6875-19.84375 24.042969v-65.035157zm-73.488281-18.5625c-14.292969 0-25.878906-11.585938-25.878906-25.882813 0-14.308594 11.621094-25.878906 25.878906-25.878906 14.140625 0 25.882812 11.449219 25.882812 25.878906 0 14.296875-11.589843 25.882813-25.882812 25.882813zm0 0"/><path d="m178.1875 85.351562c23.421875 0 42.675781-18.984374 42.675781-42.675781 0-23.570312-19.105469-42.675781-42.675781-42.675781s-42.675781 19.105469-42.675781 42.675781c0 23.773438 19.347656 42.675781 42.675781 42.675781zm0 0"/><path d="m459.683594 225.992188c4.933594-5.972657 5.929687-14.273438 2.554687-21.246094l-41.757812-86.269532c-3.3125-6.839843-10.242188-11.183593-17.839844-11.183593-12 0-94.21875 0-106.214844 0-7.601562 0-14.527343 4.34375-17.839843 11.183593l-3.808594 7.867188c6.371094 13.164062 26.28125 54.296875 31.96875 66.046875 5.992187 12.382813 4.222656 27.121094-4.535156 37.734375-6.183594 7.492188-23.460938 28.429688-29.710938 36.003906l24.136719 28.859375s-10.972657 190.90625-10.996094 191.328125c-.761719 13.109375 9.253906 24.355469 22.363281 25.117188 13.046875.765625 24.355469-9.195313 25.121094-22.363282 11.734375-202.683593 11.082031-190.425781 11.082031-191.859374h10.273438c0 1.433593-.652344-10.796876 11.082031 191.859374.765625 13.191407 12.09375 23.128907 25.117188 22.363282 13.113281-.757813 23.125-12.003906 22.363281-25.117188-2.773438-47.808594-11.082031-190.929687-11.082031-190.929687s.082031.257812 57.722656-69.394531zm-105.707032-28.160157c-2.359374 2.359375-6.183593 2.359375-8.539062 0l-20.402344-20.398437c-2.355468-2.359375-2.355468-6.183594 0-8.542969l20.402344-20.398437c2.226562-2.226563 6.109375-2.429688 8.539062 0l20.398438 20.398437c2.359375 2.359375 2.359375 6.183594 0 8.542969zm47.632813 36.261719v-63.628906l19.414063 40.105468zm0 0"/></svg>